PathFileType	4	(X/Y/Z)	c:\Git\powerlifing_model_clean\simulations\HC835B\Session1\HC835B_OGR_0005\marker_experimental.trc
DataRate	CameraRate	NumFrames	NumMarkers	Units	OrigDataRate	OrigDataStartFrame	OrigNumFrames
240.000000	240.000000	4	38	mm	240.000000	163	218
Frame#	Time	RPSI			LPSI			RASI			LASI			RTH1			RTH2			RTH3			RTH4			RSK1			RSK2			RSK3			RSK4			RCAL1			RCAL2			RCAL3			RST			RPT			RTN			RFMB			RSMB			RVMB			RFMH			RSMH			RVMH			RPM			LTH1			LTH2			LTH3			LTH4			LSK1			LSK2			LSK3			LSK4			LCAL1			LCAL2			LCAL3			LFMH			LVMH			
		X1	Y1	Z1	X2	Y2	Z2	X3	Y3	Z3	X4	Y4	Z4	X5	Y5	Z5	X6	Y6	Z6	X7	Y7	Z7	X8	Y8	Z8	X9	Y9	Z9	X10	Y10	Z10	X11	Y11	Z11	X12	Y12	Z12	X13	Y13	Z13	X14	Y14	Z14	X15	Y15	Z15	X16	Y16	Z16	X17	Y17	Z17	X18	Y18	Z18	X19	Y19	Z19	X20	Y20	Z20	X21	Y21	Z21	X22	Y22	Z22	X23	Y23	Z23	X24	Y24	Z24	X25	Y25	Z25	X26	Y26	Z26	X27	Y27	Z27	X28	Y28	Z28	X29	Y29	Z29	X30	Y30	Z30	X31	Y31	Z31	X32	Y32	Z32	X33	Y33	Z33	X34	Y34	Z34	X35	Y35	Z35	X36	Y36	Z36	X37	Y37	Z37	X38	Y38	Z38	

164	0.6791666666666667	527.4583740234376	1175.175170898438	-1986.742797851563	413.4631652832032	1170.215576171875	-1991.563842773438	581.0572509765626	1105.199340820313	-2183.83349609375	345.1759948730469	1088.666259765625	-2186.71142578125	664.3688354492189	862.5291748046877	-2213.010009765625	654.9912719726564	880.3480224609377	-2270.673828125	653.0369262695314	801.779724121094	-2270.841064453125	631.6453857421876	817.4038085937502	-2323.321044921875	607.8151245117189	443.1697387695314	-2136.4111328125	607.7917480468751	400.248504638672	-2180.795654296875	602.7730712890626	386.6034545898439	-2121.670654296875	590.9760131835939	346.6598815917969	-2164.545166015625	542.3602294921876	295.6109313964844	-1998.55078125	503.6639709472657	268.3448791503907	-1987.025756835938	566.0426025390626	259.5153198242188	-1976.105590820313	495.7326660156251	241.3910522460938	-2052.111572265625	593.5546875000001	229.8780517578126	-2026.837768554688	513.1782836914064	222.7336120605469	-2107.376220703125	513.2084350585939	188.7156066894532	-2120.394287109375	564.8351440429689	193.5464019775391	-2136.381103515625	597.6557006835939	181.0261993408203	-2046.18310546875	502.8386840820314	132.03759765625	-2145.241943359375	558.6240234375001	128.110336303711	-2159.259521484375	609.9613647460939	124.0095520019532	-2102.200927734375	547.8070678710939	92.5247039794922	-2201.8388671875	288.9929809570313	833.5933227539065	-2013.54833984375	299.8489685058594	803.638854980469	-2065.47607421875	301.1939086914063	748.5355224609376	-2004.862182617188	326.8756103515626	722.2209472656251	-2053.52880859375	347.0807800292969	375.7265014648438	-1742.520751953125	338.9317932128907	336.3536071777344	-1778.738159179688	350.4804077148438	319.8049011230469	-1733.12158203125	356.7278747558594	281.2396240234376	-1773.88330078125	413.186737060547	232.558334350586	-1626.411987304688	392.4077148437501	200.1915435791016	-1598.234741210938	449.857391357422	208.2526245117188	-1607.717041015625	469.251434326172	61.88607025146486	-1764.153442382813	365.8468933105469	47.42913818359376	-1709.274536132813	
165	0.6833333333333333	527.3443603515626	1178.528198242188	-2002.190551757813	413.3302612304689	1172.769775390625	-2007.013305664063	581.5054321289064	1109.571411132813	-2198.87158203125	346.4120178222657	1091.099487304688	-2202.5185546875	663.7973022460939	864.9177246093752	-2227.720703125	654.5613403320314	882.5713500976565	-2285.504638671875	652.4710693359376	804.006042480469	-2285.356689453125	631.1095581054689	819.4609375000002	-2337.91015625	606.5513916015626	437.9504394531251	-2156.406005859375	607.5331420898439	396.6636657714845	-2202.291259765625	601.6782836914064	380.7868652343751	-2143.77978515625	590.9616088867189	342.2812500000001	-2188.271728515625	540.4472656250001	284.5534362792969	-2024.909423828125	501.6755981445314	256.6572875976563	-2015.048828125	564.0128173828126	247.4345092773438	-2003.616455078125	494.6574096679689	232.5518798828126	-2081.4443359375	591.0472412109376	219.4383697509766	-2055.283447265625	512.7625122070314	216.1775054931641	-2136.995361328125	513.0295410156251	182.7901306152344	-2151.556884765625	564.8996582031251	188.4818878173828	-2166.936279296875	596.6049194335939	171.9452667236328	-2076.596923828125	503.0115661621095	127.1463623046875	-2178.86572265625	559.0187377929689	123.7736587524414	-2192.324462890625	609.4442749023439	117.2730026245117	-2134.529541015625	548.8687744140626	90.0202102661133	-2236.424072265625	289.0701599121094	837.1001586914065	-2026.261352539063	300.4940490722657	806.4612426757815	-2077.691162109375	301.6521606445313	752.3761596679689	-2016.190795898438	327.7469177246094	725.3610839843751	-2064.373291015625	346.0649719238282	380.9440307617188	-1750.006103515625	337.7145385742188	341.8594360351563	-1786.465087890625	349.3602600097657	324.8352966308594	-1740.78955078125	355.7463989257813	286.4866333007813	-1781.48876953125	411.742401123047	240.1680603027344	-1635.764770507813	391.4990844726564	208.6479034423829	-1606.25830078125	448.8084716796876	216.9486694335938	-1616.414794921875	467.9780578613282	64.97456359863283	-1768.44140625	365.8578796386719	51.08849334716798	-1711.682373046875	
166	0.6875	527.2247924804689	1181.605712890625	-2017.4130859375	413.1740722656251	1175.291870117188	-2022.37646484375	581.9271240234376	1113.79833984375	-2214.010986328125	347.6932678222657	1093.458740234375	-2218.318115234375	663.1408691406251	867.0207519531252	-2242.281005859375	654.0256958007814	884.4693603515627	-2300.17431640625	651.6585083007814	805.8769531250002	-2299.66455078125	630.4403686523439	821.127624511719	-2352.3115234375	605.1803588867189	432.5073547363282	-2176.340087890625	607.2317504882814	392.8937988281251	-2223.668212890625	600.5731201171876	374.9058837890626	-2165.9111328125	590.7723999023439	337.9817504882813	-2212.043212890625	538.5589599609376	273.7413024902344	-2051.535400390625	499.6109008789064	245.0482482910157	-2043.197875976563	561.9363403320314	235.5955810546876	-2031.513061523438	493.6429138183595	223.9476623535157	-2110.709228515625	589.6179199218751	209.7291412353516	-2083.923095703125	512.3306884765626	209.8034362792969	-2166.66162109375	512.8557128906251	176.9642791748047	-2182.62255859375	564.9464111328126	183.3628692626953	-2197.040771484375	595.5723876953126	163.1426696777344	-2107.193115234375	503.3376464843751	122.5848617553711	-2212.3828125	559.4828491210939	119.8616714477539	-2225.294677734375	609.2529296875001	111.1669998168946	-2167.01220703125	549.9255371093751	88.00998687744142	-2270.843994140625	289.1419372558594	840.6126098632815	-2039.028686523438	300.9532470703126	809.3107910156252	-2089.9619140625	302.1254577636719	756.1140136718751	-2027.624633789063	328.3801574707032	728.4511718750001	-2075.426513671875	345.0730590820313	386.2401733398439	-1757.823364257813	336.9303283691407	347.1463012695313	-1794.380004882813	348.4556884765626	330.0823669433594	-1748.751831054688	354.9282531738282	291.7896118164063	-1789.394409179688	410.6768798828126	247.9179229736329	-1644.77392578125	390.7999877929689	217.1325225830079	-1614.156372070313	448.005584716797	225.6073303222657	-1624.970581054688	466.1305541992189	68.19923400878908	-1772.780883789063	366.0805358886719	55.55695724487306	-1713.885009765625	
167	0.6916666666666667	527.0012207031251	1184.535278320313	-2032.660034179688	412.9360961914064	1177.6630859375	-2037.73828125	582.2953491210939	1117.945190429688	-2229.23486328125	348.9661865234376	1095.718139648438	-2234.130126953125	662.4270019531251	868.854187011719	-2256.679443359375	653.3509521484376	886.0315551757815	-2314.668701171875	650.9141235351564	807.4785766601565	-2313.8173828125	629.7135009765626	822.4642333984377	-2366.50390625	604.0062255859376	427.0212707519532	-2196.14501953125	606.9821777343751	389.019989013672	-2244.986328125	599.4678344726564	368.9205627441407	-2187.998291015625	590.6776733398439	333.5799560546876	-2235.603759765625	535.9432373046876	262.5246276855469	-2078.461669921875	497.7056579589845	233.8042755126954	-2071.6552734375	559.8662109375001	223.9326171875001	-2059.649658203125	492.5775146484376	215.3718414306641	-2140.0322265625	588.2684326171876	200.3717803955079	-2112.75439453125	511.9306945800782	203.5816955566407	-2196.24560546875	512.7282104492189	171.38330078125	-2213.434814453125	564.8958740234376	178.587631225586	-2227.160400390625	594.7265014648439	154.9087066650391	-2137.86962890625	503.6929931640626	118.4413833618164	-2245.782470703125	560.0385742187501	116.4048461914063	-2258.10791015625	609.1616821289064	105.4323272705078	-2199.486572265625	551.1099853515626	86.38008880615236	-2305.032958984375	289.2403869628907	844.041198730469	-2051.90625	301.2714843750001	812.1096191406252	-2102.3671875	302.3913574218751	759.5676879882814	-2039.449462890625	328.8168640136719	731.4825439453126	-2086.7099609375	344.1602478027344	391.6009826660157	-1766.088989257813	336.4785156250001	352.5379028320313	-1802.62060546875	347.5984191894532	335.4242553710938	-1756.817138671875	354.3879699707032	297.1408996582032	-1797.395385742188	409.8160705566407	255.7537841796876	-1653.693115234375	390.2991943359376	225.8594512939454	-1621.935791015625	447.3257141113282	234.2397460937501	-1633.447265625	464.2281799316407	71.90735626220705	-1777.023071289063	365.9544372558594	60.69959640502931	-1716.921020507813	
